<?xml version="1.0" encoding="UTF-8"?>
<svg width="210px" height="42px" viewBox="0 0 839 167" version="1.1" xmlns="http://www.w3.org/2000/svg" xmlns:xlink="http://www.w3.org/1999/xlink">
    <!-- Generator: Sketch 61.2 (89653) - https://sketch.com -->
    <title>Purple Logo - Dark Background</title>
    <desc>Created with Sketch.</desc>
    <defs>
        <radialGradient cx="91.4415775%" cy="100%" fx="91.4415775%" fy="100%" r="82.8800486%" gradientTransform="translate(0.914416,1.000000),scale(0.922050,1.000000),rotate(-114.123845),scale(1.000000,5.411796),translate(-0.914416,-1.000000)" id="radialGradient-1">
            <stop stop-color="#50C6C8" offset="0%"></stop>
            <stop stop-color="#822BBF" offset="100%"></stop>
        </radialGradient>
    </defs>
    <g id="Page-1" stroke="none" stroke-width="1" fill="none" fill-rule="evenodd">
        <g id="Purple-Logo---Dark-Background" fill-rule="nonzero">
            <g id="Release-Text---3" transform="translate(257.000000, 42.000000)" fill="#FAFAFA">
                <path d="M0.162962963,82.1 L0.162962963,13.95 C0.162962963,4.525 5.20987654,1.625 11.6987654,1.625 L52.0740741,1.625 C67.2148148,1.625 72.2617284,11.05 72.2617284,27 C72.2617284,43.675 67.2148148,53.825 53.5160494,53.825 L45.5851852,53.825 L45.5851852,54.55 L73.7037037,82.1 L54.237037,82.1 L28.2814815,56 C26.8395062,53.825 24.6765432,51.65 24.6765432,49.475 L24.6765432,47.3 C24.6765432,44.4 26.8395062,41.5 31.1654321,41.5 L47.0271605,41.5 C55.6790123,41.5 56.4,35.7 56.4,27 C56.4,17.575 54.9580247,13.95 44.8641975,13.95 L20.3506173,13.95 C16.0246914,13.95 14.582716,15.4 14.582716,19.75 L14.582716,82.1 L0.162962963,82.1 L0.162962963,82.1 Z" id="Path"></path>
                <path d="M157.338272,82.1 L104.706173,82.1 C98.217284,82.1 93.1703704,79.2 93.1703704,69.775 L93.1703704,13.225 C93.1703704,3.8 98.217284,0.9 104.706173,0.9 L156.617284,0.9 L156.617284,13.225 L114.079012,13.225 C109.753086,13.225 108.311111,14.675 108.311111,19.025 L108.311111,34.25 L155.896296,34.25 L155.896296,46.575 L108.311111,46.575 L108.311111,63.975 C108.311111,68.325 109.753086,69.775 114.079012,69.775 L157.338272,69.775 L157.338272,82.1 Z" id="Path"></path>
                <path d="M188.340741,82.1 C181.851852,82.1 176.804938,79.2 176.804938,69.775 L176.804938,1.625 L191.945679,1.625 L191.945679,63.975 C191.945679,68.325 193.387654,69.775 197.71358,69.775 L240.97284,69.775 L240.97284,82.1 L188.340741,82.1 Z" id="Path"></path>
                <path d="M320.281481,82.1 L267.649383,82.1 C261.160494,82.1 256.11358,79.2 256.11358,69.775 L256.11358,13.225 C256.11358,3.8 261.160494,0.9 267.649383,0.9 L319.560494,0.9 L319.560494,13.225 L277.022222,13.225 C272.696296,13.225 271.254321,14.675 271.254321,19.025 L271.254321,34.25 L318.839506,34.25 L318.839506,46.575 L271.254321,46.575 L271.254321,63.975 C271.254321,68.325 272.696296,69.775 277.022222,69.775 L320.281481,69.775 L320.281481,82.1 Z" id="Path"></path>
                <path d="M362.098765,10.325 C364.982716,3.8 367.866667,0.9 375.076543,0.9 C381.565432,0.9 385.17037,3.075 388.054321,10.325 L418.335802,82.825 L402.474074,82.825 L394.54321,62.525 L356.330864,62.525 L348.4,82.825 L332.538272,82.825 L362.098765,10.325 Z M359.935802,50.925 L390.938272,50.925 L377.960494,18.3 C377.239506,16.85 376.518519,14.675 375.797531,14.675 C375.076543,14.675 373.634568,16.85 373.634568,18.3 L359.935802,50.925 Z" id="Shape"></path>
                <path d="M430.592593,69.775 L474.57284,69.775 C481.782716,69.775 481.782716,63.975 481.782716,61.075 C481.782716,58.175 481.061728,54.55 473.851852,51.65 L442.128395,41.5 C431.31358,37.875 428.42963,31.35 428.42963,20.475 C428.42963,8.875 434.197531,0.9 446.454321,0.9 L492.597531,0.9 L492.597531,13.225 L450.780247,13.225 C447.175309,13.225 444.291358,15.4 444.291358,21.2 C444.291358,24.825 445.012346,28.45 451.501235,30.625 L481.061728,40.05 C492.597531,43.675 497.644444,48.75 497.644444,61.075 C497.644444,72.675 492.597531,81.375 480.340741,81.375 L429.871605,81.375 L429.871605,69.775 L430.592593,69.775 Z" id="Path"></path>
                <path d="M581.279012,82.1 L528.646914,82.1 C522.158025,82.1 517.111111,79.2 517.111111,69.775 L517.111111,13.225 C517.111111,3.8 522.158025,0.9 528.646914,0.9 L580.558025,0.9 L580.558025,13.225 L538.019753,13.225 C533.693827,13.225 532.251852,14.675 532.251852,19.025 L532.251852,34.25 L579.837037,34.25 L579.837037,46.575 L532.251852,46.575 L532.251852,63.975 C532.251852,68.325 533.693827,69.775 538.019753,69.775 L581.279012,69.775 L581.279012,82.1 Z" id="Path"></path>
            </g>
            <g id="Purple-Logo" fill="url(#radialGradient-1)">
                <path d="M138.407692,0.604166667 L138.407692,29.4375 L29.0843846,29.4371667 L29.0846154,166.395833 L0.315384615,166.395833 L0.315384615,0.604166667 L138.407692,0.604166667 Z M180.123077,0.604166667 L180.123077,166.395833 L151.353846,166.395833 L151.353385,165.674167 L40.5923077,165.675 L40.5923077,136.841667 L151.353385,136.841167 L151.353846,0.604166667 L180.123077,0.604166667 Z" id="Combined-Shape"></path>
            </g>
        </g>
    </g>
</svg>
